<svg width="1928" height="377" viewBox="0 0 1928 377" fill="none" xmlns="http://www.w3.org/2000/svg">
<mask id="mask0_399_2250" style="mask-type:alpha" maskUnits="userSpaceOnUse" x="-1" y="-1" width="1930" height="440">
<path d="M0 123.972C143.187 22.8743 257.09 -9.23392 431.997 2.19602C574.29 11.4947 633.655 121.769 776.234 123.972C925.343 126.275 989.075 5.73837 1138.16 2.19602C1298.62 -1.61658 1370.2 123.427 1530.7 123.972C1692.98 124.523 1793.9 93.5888 1928 2.19602" stroke="#001926" stroke-width="0.3"/>
<path d="M0 438.275C143.187 337.178 257.09 305.07 431.997 316.5C574.29 325.798 633.655 436.072 776.234 438.275C925.343 440.579 989.075 320.042 1138.16 316.5C1298.62 312.687 1370.2 437.73 1530.7 438.275C1692.98 438.826 1793.9 407.893 1928 316.5" stroke="#001926" stroke-width="0.3"/>
<path d="M0 129.124C143.187 28.0271 257.09 -4.08108 431.997 7.34885C574.29 16.6475 633.655 126.922 776.234 129.124C925.343 131.428 989.075 10.8912 1138.16 7.34885C1298.62 3.53625 1370.2 128.579 1530.7 129.124C1692.98 129.675 1793.9 98.7416 1928 7.34885" stroke="#001926" stroke-width="0.3"/>
<path d="M0 134.277C143.187 33.1792 257.09 1.07101 431.997 12.5009C574.29 21.7996 633.655 132.074 776.234 134.277C925.343 136.58 989.075 16.0433 1138.16 12.5009C1298.62 8.68835 1370.2 133.732 1530.7 134.277C1692.98 134.828 1793.9 103.894 1928 12.5009" stroke="#001926" stroke-width="0.3"/>
<path d="M0 139.429C143.187 38.332 257.09 6.22385 431.997 17.6538C574.29 26.9524 633.655 137.227 776.234 139.429C925.343 141.733 989.075 21.1961 1138.16 17.6538C1298.62 13.8412 1370.2 138.884 1530.7 139.429C1692.98 139.98 1793.9 109.047 1928 17.6538" stroke="#001926" stroke-width="0.3"/>
<path d="M0 144.581C143.187 43.4841 257.09 11.3759 431.997 22.8059C574.29 32.1045 633.655 142.379 776.234 144.581C925.343 146.885 989.075 26.3482 1138.16 22.8059C1298.62 18.9933 1370.2 144.036 1530.7 144.581C1692.98 145.132 1793.9 114.199 1928 22.8059" stroke="#001926" stroke-width="0.3"/>
<path d="M0 149.734C143.187 48.637 257.09 16.5288 431.997 27.9587C574.29 37.2574 633.655 147.531 776.234 149.734C925.343 152.038 989.075 31.5011 1138.16 27.9587C1298.62 24.1461 1370.2 149.189 1530.7 149.734C1692.98 150.285 1793.9 119.351 1928 27.9587" stroke="#001926" stroke-width="0.3"/>
<path d="M0 154.887C143.187 53.7893 257.09 21.6811 431.997 33.1111C574.29 42.4097 633.655 152.684 776.234 154.887C925.343 157.19 989.075 36.6534 1138.16 33.1111C1298.62 29.2985 1370.2 154.342 1530.7 154.887C1692.98 155.438 1793.9 124.504 1928 33.1111" stroke="#001926" stroke-width="0.3"/>
<path d="M0 160.039C143.187 58.9421 257.09 26.834 431.997 38.2639C574.29 47.5626 633.655 157.837 776.234 160.039C925.343 162.343 989.075 41.8062 1138.16 38.2639C1298.62 34.4513 1370.2 159.494 1530.7 160.039C1692.98 160.591 1793.9 129.657 1928 38.2639" stroke="#001926" stroke-width="0.3"/>
<path d="M0 165.192C143.187 64.0942 257.09 31.9861 431.997 43.416C574.29 52.7147 633.655 162.989 776.234 165.192C925.343 167.495 989.075 46.9583 1138.16 43.416C1298.62 39.6034 1370.2 164.647 1530.7 165.192C1692.98 165.743 1793.9 134.809 1928 43.416" stroke="#001926" stroke-width="0.3"/>
<path d="M0 170.344C143.187 69.2471 257.09 37.1389 431.997 48.5688C574.29 57.8675 633.655 168.142 776.234 170.344C925.343 172.648 989.075 52.1112 1138.16 48.5688C1298.62 44.7562 1370.2 169.799 1530.7 170.344C1692.98 170.895 1793.9 139.962 1928 48.5688" stroke="#001926" stroke-width="0.3"/>
<path d="M0 175.496C143.187 74.3992 257.09 42.291 431.997 53.7209C574.29 63.0196 633.655 173.294 776.234 175.496C925.343 177.8 989.075 57.2633 1138.16 53.7209C1298.62 49.9083 1370.2 174.952 1530.7 175.496C1692.98 176.048 1793.9 145.114 1928 53.7209" stroke="#001926" stroke-width="0.3"/>
<path d="M0 180.649C143.187 79.552 257.09 47.4438 431.997 58.8738C574.29 68.1724 633.655 178.446 776.234 180.649C925.343 182.953 989.075 62.4161 1138.16 58.8738C1298.62 55.0612 1370.2 180.104 1530.7 180.649C1692.98 181.2 1793.9 150.267 1928 58.8738" stroke="#001926" stroke-width="0.3"/>
<path d="M0 185.801C143.187 84.7041 257.09 52.5959 431.997 64.0259C574.29 73.3245 633.655 183.599 776.234 185.801C925.343 188.105 989.075 67.5682 1138.16 64.0259C1298.62 60.2133 1370.2 185.256 1530.7 185.801C1692.98 186.352 1793.9 155.419 1928 64.0259" stroke="#001926" stroke-width="0.3"/>
<path d="M0 190.954C143.187 89.8569 257.09 57.7487 431.997 69.1787C574.29 78.4773 633.655 188.751 776.234 190.954C925.343 193.258 989.075 72.721 1138.16 69.1787C1298.62 65.3661 1370.2 190.409 1530.7 190.954C1692.98 191.505 1793.9 160.571 1928 69.1787" stroke="#001926" stroke-width="0.3"/>
<path d="M0 196.107C143.187 95.0098 257.09 62.9016 431.997 74.3315C574.29 83.6302 633.655 193.904 776.234 196.107C925.343 198.411 989.075 77.8739 1138.16 74.3315C1298.62 70.5189 1370.2 195.562 1530.7 196.107C1692.98 196.658 1793.9 165.724 1928 74.3315" stroke="#001926" stroke-width="0.3"/>
<path d="M0 201.259C143.187 100.162 257.09 68.0537 431.997 79.4836C574.29 88.7823 633.655 199.056 776.234 201.259C925.343 203.563 989.075 83.026 1138.16 79.4836C1298.62 75.671 1370.2 200.714 1530.7 201.259C1692.98 201.81 1793.9 170.876 1928 79.4836" stroke="#001926" stroke-width="0.3"/>
<path d="M0 206.412C143.187 105.315 257.09 73.2065 431.997 84.6364C574.29 93.9351 633.655 204.209 776.234 206.412C925.343 208.716 989.075 88.1788 1138.16 84.6364C1298.62 80.8239 1370.2 205.867 1530.7 206.412C1692.98 206.963 1793.9 176.029 1928 84.6364" stroke="#001926" stroke-width="0.3"/>
<path d="M0 211.564C143.187 110.467 257.09 78.3586 431.997 89.7885C574.29 99.0872 633.655 209.361 776.234 211.564C925.343 213.868 989.075 93.3309 1138.16 89.7885C1298.62 85.976 1370.2 211.019 1530.7 211.564C1692.98 212.115 1793.9 181.181 1928 89.7885" stroke="#001926" stroke-width="0.3"/>
<path d="M0 216.717C143.187 115.62 257.09 83.5114 431.997 94.9414C574.29 104.24 633.655 214.514 776.234 216.717C925.343 219.021 989.075 98.4837 1138.16 94.9414C1298.62 91.1288 1370.2 216.172 1530.7 216.717C1692.98 217.268 1793.9 186.334 1928 94.9414" stroke="#001926" stroke-width="0.3"/>
<path d="M0 221.869C143.187 120.772 257.09 88.6638 431.997 100.094C574.29 109.392 633.655 219.666 776.234 221.869C925.343 224.173 989.075 103.636 1138.16 100.094C1298.62 96.2811 1370.2 221.324 1530.7 221.869C1692.98 222.42 1793.9 191.487 1928 100.094" stroke="#001926" stroke-width="0.3"/>
<path d="M0 227.022C143.187 125.925 257.09 93.8166 431.997 105.247C574.29 114.545 633.655 224.819 776.234 227.022C925.343 229.326 989.075 108.789 1138.16 105.247C1298.62 101.434 1370.2 226.477 1530.7 227.022C1692.98 227.573 1793.9 196.639 1928 105.247" stroke="#001926" stroke-width="0.3"/>
<path d="M0 232.174C143.187 131.077 257.09 98.9687 431.997 110.399C574.29 119.697 633.655 229.971 776.234 232.174C925.343 234.478 989.075 113.941 1138.16 110.399C1298.62 106.586 1370.2 231.629 1530.7 232.174C1692.98 232.725 1793.9 201.791 1928 110.399" stroke="#001926" stroke-width="0.3"/>
<path d="M0 237.327C143.187 136.23 257.09 104.122 431.997 115.551C574.29 124.85 633.655 235.124 776.234 237.327C925.343 239.631 989.075 119.094 1138.16 115.551C1298.62 111.739 1370.2 236.782 1530.7 237.327C1692.98 237.878 1793.9 206.944 1928 115.551" stroke="#001926" stroke-width="0.3"/>
<path d="M0 242.479C143.187 141.382 257.09 109.274 431.997 120.704C574.29 130.002 633.655 240.276 776.234 242.479C925.343 244.783 989.075 124.246 1138.16 120.704C1298.62 116.891 1370.2 241.934 1530.7 242.479C1692.98 243.03 1793.9 212.096 1928 120.704" stroke="#001926" stroke-width="0.3"/>
<path d="M0 247.632C143.187 146.535 257.09 114.426 431.997 125.856C574.29 135.155 633.655 245.429 776.234 247.632C925.343 249.936 989.075 129.399 1138.16 125.856C1298.62 122.044 1370.2 247.087 1530.7 247.632C1692.98 248.183 1793.9 217.249 1928 125.856" stroke="#001926" stroke-width="0.3"/>
<path d="M0 252.785C143.187 151.688 257.09 119.579 431.997 131.009C574.29 140.308 633.655 250.582 776.234 252.785C925.343 255.089 989.075 134.552 1138.16 131.009C1298.62 127.197 1370.2 252.24 1530.7 252.785C1692.98 253.336 1793.9 222.402 1928 131.009" stroke="#001926" stroke-width="0.3"/>
<path d="M0 257.937C143.187 156.84 257.09 124.731 431.997 136.161C574.29 145.46 633.655 255.734 776.234 257.937C925.343 260.241 989.075 139.704 1138.16 136.161C1298.62 132.349 1370.2 257.392 1530.7 257.937C1692.98 258.488 1793.9 227.554 1928 136.161" stroke="#001926" stroke-width="0.3"/>
<path d="M0 263.09C143.187 161.992 257.09 129.884 431.997 141.314C574.29 150.613 633.655 260.887 776.234 263.09C925.343 265.393 989.075 144.857 1138.16 141.314C1298.62 137.502 1370.2 262.545 1530.7 263.09C1692.98 263.641 1793.9 232.707 1928 141.314" stroke="#001926" stroke-width="0.3"/>
<path d="M0 268.242C143.187 167.145 257.09 135.036 431.997 146.466C574.29 155.765 633.655 266.039 776.234 268.242C925.343 270.546 989.075 150.009 1138.16 146.466C1298.62 142.654 1370.2 267.697 1530.7 268.242C1692.98 268.793 1793.9 237.859 1928 146.466" stroke="#001926" stroke-width="0.3"/>
<path d="M0 273.395C143.187 172.297 257.09 140.189 431.997 151.619C574.29 160.918 633.655 271.192 776.234 273.395C925.343 275.698 989.075 155.161 1138.16 151.619C1298.62 147.807 1370.2 272.85 1530.7 273.395C1692.98 273.946 1793.9 243.012 1928 151.619" stroke="#001926" stroke-width="0.3"/>
<path d="M0 278.547C143.187 177.449 257.09 145.341 431.997 156.771C574.29 166.07 633.655 276.344 776.234 278.547C925.343 280.85 989.075 160.314 1138.16 156.771C1298.62 152.959 1370.2 278.002 1530.7 278.547C1692.98 279.098 1793.9 248.164 1928 156.771" stroke="#001926" stroke-width="0.3"/>
<path d="M0 283.7C143.187 182.602 257.09 150.494 431.997 161.924C574.29 171.223 633.655 281.497 776.234 283.7C925.343 286.003 989.075 165.466 1138.16 161.924C1298.62 158.111 1370.2 283.155 1530.7 283.7C1692.98 284.251 1793.9 253.317 1928 161.924" stroke="#001926" stroke-width="0.3"/>
<path d="M0 288.852C143.187 187.755 257.09 155.646 431.997 167.076C574.29 176.375 633.655 286.649 776.234 288.852C925.343 291.156 989.075 170.619 1138.16 167.076C1298.62 163.264 1370.2 288.307 1530.7 288.852C1692.98 289.403 1793.9 258.469 1928 167.076" stroke="#001926" stroke-width="0.3"/>
<path d="M0 294.005C143.187 192.907 257.09 160.799 431.997 172.229C574.29 181.528 633.655 291.802 776.234 294.005C925.343 296.309 989.075 175.772 1138.16 172.229C1298.62 168.417 1370.2 293.46 1530.7 294.005C1692.98 294.556 1793.9 263.622 1928 172.229" stroke="#001926" stroke-width="0.3"/>
<path d="M0 299.157C143.187 198.059 257.09 165.951 431.997 177.381C574.29 186.68 633.655 296.954 776.234 299.157C925.343 301.46 989.075 180.923 1138.16 177.381C1298.62 173.568 1370.2 298.612 1530.7 299.157C1692.98 299.708 1793.9 268.774 1928 177.381" stroke="#001926" stroke-width="0.3"/>
<path d="M0 304.309C143.187 203.212 257.09 171.104 431.997 182.534C574.29 191.833 633.655 302.107 776.234 304.309C925.343 306.613 989.075 186.076 1138.16 182.534C1298.62 178.721 1370.2 303.764 1530.7 304.309C1692.98 304.861 1793.9 273.927 1928 182.534" stroke="#001926" stroke-width="0.3"/>
<path d="M0 309.462C143.187 208.365 257.09 176.256 431.997 187.686C574.29 196.985 633.655 307.259 776.234 309.462C925.343 311.766 989.075 191.229 1138.16 187.686C1298.62 183.874 1370.2 308.917 1530.7 309.462C1692.98 310.013 1793.9 279.079 1928 187.686" stroke="#001926" stroke-width="0.3"/>
<path d="M0 314.615C143.187 213.517 257.09 181.409 431.997 192.839C574.29 202.138 633.655 312.412 776.234 314.615C925.343 316.918 989.075 196.381 1138.16 192.839C1298.62 189.026 1370.2 314.07 1530.7 314.615C1692.98 315.166 1793.9 284.232 1928 192.839" stroke="#001926" stroke-width="0.3"/>
<path d="M0 319.767C143.187 218.67 257.09 186.562 431.997 197.992C574.29 207.291 633.655 317.565 776.234 319.767C925.343 322.071 989.075 201.534 1138.16 197.992C1298.62 194.179 1370.2 319.222 1530.7 319.767C1692.98 320.319 1793.9 289.385 1928 197.992" stroke="#001926" stroke-width="0.3"/>
<path d="M0 324.92C143.187 223.823 257.09 191.714 431.997 203.144C574.29 212.443 633.655 322.717 776.234 324.92C925.343 327.224 989.075 206.687 1138.16 203.144C1298.62 199.332 1370.2 324.375 1530.7 324.92C1692.98 325.471 1793.9 294.537 1928 203.144" stroke="#001926" stroke-width="0.3"/>
<path d="M0 330.073C143.187 228.975 257.09 196.867 431.997 208.297C574.29 217.596 633.655 327.87 776.234 330.073C925.343 332.376 989.075 211.839 1138.16 208.297C1298.62 204.484 1370.2 329.528 1530.7 330.073C1692.98 330.624 1793.9 299.69 1928 208.297" stroke="#001926" stroke-width="0.3"/>
<path d="M0 335.225C143.187 234.127 257.09 202.019 431.997 213.449C574.29 222.748 633.655 333.022 776.234 335.225C925.343 337.528 989.075 216.991 1138.16 213.449C1298.62 209.636 1370.2 334.68 1530.7 335.225C1692.98 335.776 1793.9 304.842 1928 213.449" stroke="#001926" stroke-width="0.3"/>
<path d="M0 340.377C143.187 239.28 257.09 207.172 431.997 218.602C574.29 227.9 633.655 338.175 776.234 340.377C925.343 342.681 989.075 222.144 1138.16 218.602C1298.62 214.789 1370.2 339.832 1530.7 340.377C1692.98 340.928 1793.9 309.995 1928 218.602" stroke="#001926" stroke-width="0.3"/>
<path d="M0 345.53C143.187 244.432 257.09 212.324 431.997 223.754C574.29 233.053 633.655 343.327 776.234 345.53C925.343 347.833 989.075 227.296 1138.16 223.754C1298.62 219.942 1370.2 344.985 1530.7 345.53C1692.98 346.081 1793.9 315.147 1928 223.754" stroke="#001926" stroke-width="0.3"/>
<path d="M0 350.683C143.187 249.585 257.09 217.477 431.997 228.907C574.29 238.206 633.655 348.48 776.234 350.683C925.343 352.986 989.075 232.449 1138.16 228.907C1298.62 225.094 1370.2 350.138 1530.7 350.683C1692.98 351.234 1793.9 320.3 1928 228.907" stroke="#001926" stroke-width="0.3"/>
<path d="M0 355.834C143.187 254.737 257.09 222.629 431.997 234.059C574.29 243.357 633.655 353.632 776.234 355.834C925.343 358.138 989.075 237.601 1138.16 234.059C1298.62 230.246 1370.2 355.289 1530.7 355.834C1692.98 356.385 1793.9 325.452 1928 234.059" stroke="#001926" stroke-width="0.3"/>
<path d="M0 360.987C143.187 259.89 257.09 227.782 431.997 239.212C574.29 248.51 633.655 358.784 776.234 360.987C925.343 363.291 989.075 242.754 1138.16 239.212C1298.62 235.399 1370.2 360.442 1530.7 360.987C1692.98 361.538 1793.9 330.604 1928 239.212" stroke="#001926" stroke-width="0.3"/>
<path d="M0 366.14C143.187 265.042 257.09 232.934 431.997 244.364C574.29 253.663 633.655 363.937 776.234 366.14C925.343 368.443 989.075 247.906 1138.16 244.364C1298.62 240.551 1370.2 365.595 1530.7 366.14C1692.98 366.691 1793.9 335.757 1928 244.364" stroke="#001926" stroke-width="0.3"/>
<path d="M0 371.292C143.187 270.195 257.09 238.087 431.997 249.517C574.29 258.815 633.655 369.09 776.234 371.292C925.343 373.596 989.075 253.059 1138.16 249.517C1298.62 245.704 1370.2 370.747 1530.7 371.292C1692.98 371.843 1793.9 340.91 1928 249.517" stroke="#001926" stroke-width="0.3"/>
<path d="M0 376.445C143.187 275.348 257.09 243.24 431.997 254.67C574.29 263.968 633.655 374.242 776.234 376.445C925.343 378.749 989.075 258.212 1138.16 254.67C1298.62 250.857 1370.2 375.9 1530.7 376.445C1692.98 376.996 1793.9 346.062 1928 254.67" stroke="#001926" stroke-width="0.3"/>
<path d="M0 381.598C143.187 280.5 257.09 248.392 431.997 259.822C574.29 269.121 633.655 379.395 776.234 381.598C925.343 383.901 989.075 263.364 1138.16 259.822C1298.62 256.009 1370.2 381.053 1530.7 381.598C1692.98 382.149 1793.9 351.215 1928 259.822" stroke="#001926" stroke-width="0.3"/>
<path d="M0 386.75C143.187 285.653 257.09 253.544 431.997 264.974C574.29 274.273 633.655 384.547 776.234 386.75C925.343 389.054 989.075 268.517 1138.16 264.974C1298.62 261.162 1370.2 386.205 1530.7 386.75C1692.98 387.301 1793.9 356.367 1928 264.974" stroke="#001926" stroke-width="0.3"/>
<path d="M0 391.902C143.187 290.805 257.09 258.697 431.997 270.127C574.29 279.425 633.655 389.699 776.234 391.902C925.343 394.206 989.075 273.669 1138.16 270.127C1298.62 266.314 1370.2 391.357 1530.7 391.902C1692.98 392.453 1793.9 361.519 1928 270.127" stroke="#001926" stroke-width="0.3"/>
<path d="M0 397.055C143.187 295.958 257.09 263.85 431.997 275.28C574.29 284.578 633.655 394.852 776.234 397.055C925.343 399.359 989.075 278.822 1138.16 275.28C1298.62 271.467 1370.2 396.51 1530.7 397.055C1692.98 397.606 1793.9 366.672 1928 275.28" stroke="#001926" stroke-width="0.3"/>
<path d="M0 402.207C143.187 301.11 257.09 269.002 431.997 280.432C574.29 289.731 633.655 400.005 776.234 402.207C925.343 404.511 989.075 283.974 1138.16 280.432C1298.62 276.619 1370.2 401.662 1530.7 402.207C1692.98 402.758 1793.9 371.825 1928 280.432" stroke="#001926" stroke-width="0.3"/>
<path d="M0 407.36C143.187 306.263 257.09 274.155 431.997 285.585C574.29 294.883 633.655 405.157 776.234 407.36C925.343 409.664 989.075 289.127 1138.16 285.585C1298.62 281.772 1370.2 406.815 1530.7 407.36C1692.98 407.911 1793.9 376.977 1928 285.585" stroke="#001926" stroke-width="0.3"/>
<path d="M0 412.512C143.187 311.415 257.09 279.307 431.997 290.737C574.29 300.035 633.655 410.309 776.234 412.512C925.343 414.816 989.075 294.279 1138.16 290.737C1298.62 286.924 1370.2 411.967 1530.7 412.512C1692.98 413.063 1793.9 382.129 1928 290.737" stroke="#001926" stroke-width="0.3"/>
<path d="M0 417.665C143.187 316.568 257.09 284.459 431.997 295.889C574.29 305.188 633.655 415.462 776.234 417.665C925.343 419.969 989.075 299.432 1138.16 295.889C1298.62 292.077 1370.2 417.12 1530.7 417.665C1692.98 418.216 1793.9 387.282 1928 295.889" stroke="#001926" stroke-width="0.3"/>
<path d="M0 422.817C143.187 321.72 257.09 289.612 431.997 301.042C574.29 310.34 633.655 420.614 776.234 422.817C925.343 425.121 989.075 304.584 1138.16 301.042C1298.62 297.229 1370.2 422.272 1530.7 422.817C1692.98 423.368 1793.9 392.435 1928 301.042" stroke="#001926" stroke-width="0.3"/>
<path d="M0 427.97C143.187 326.873 257.09 294.765 431.997 306.195C574.29 315.493 633.655 425.767 776.234 427.97C925.343 430.274 989.075 309.737 1138.16 306.195C1298.62 302.382 1370.2 427.425 1530.7 427.97C1692.98 428.521 1793.9 397.587 1928 306.195" stroke="#001926" stroke-width="0.3"/>
<path d="M0 433.122C143.187 332.025 257.09 299.916 431.997 311.346C574.29 320.645 633.655 430.919 776.234 433.122C925.343 435.426 989.075 314.889 1138.16 311.346C1298.62 307.534 1370.2 432.577 1530.7 433.122C1692.98 433.673 1793.9 402.739 1928 311.346" stroke="#001926" stroke-width="0.3"/>
</mask>
<g mask="url(#mask0_399_2250)">
<rect x="8" y="164" width="1920" height="96" fill="#001926"/>
</g>
</svg>
